Motion_pl15
version=1
nRows=16
nColumns=43
inDegrees=yes
endheader
time	pelvis_tilt	pelvis_list	pelvis_rotation	pelvis_tx	pelvis_ty	pelvis_tz	hip_flexion_r	hip_adduction_r	hip_rotation_r	knee_angle_r	ankle_angle_r	subtalar_angle_r	mtp_angle_r	hip_flexion_l	hip_adduction_l	hip_rotation_l	knee_angle_l	ankle_angle_l	subtalar_angle_l	mtp_angle_l	lumbar_extension	lumbar_bending	lumbar_rotation	neck_flexion	neck_lateral_bending	neck_rotation	arm_flex_r	arm_add_r	arm_rot_r	elbow_flex_r	pro_sup_r	wrist_flex_r	wrist_dev_r	hand_finger_flex_r	arm_flex_l	arm_add_l	arm_rot_l	elbow_flex_l	pro_sup_l	wrist_flex_l	wrist_dev_l	hand_finger_flex_l
      2.56250000	      2.28359425	     -2.41902153	     88.96433960	     -0.02993692	      0.48201657	      0.39498592	     93.56108696	     -7.24801866	      0.01793069	   -133.54276215	     23.62198080	     11.21035170	     22.89922934	     92.56544979	     -9.49645793	      4.84929895	   -136.58844381	     21.75255247	     24.37375433	     32.13606343	    -58.61044770	     -0.85580094	     -0.71308192	     32.75060680	      4.42289259	     -1.45951216	    119.85672487	    -17.31631069	     18.64855995	     48.64124710	    102.39825989	      1.55987672	     -3.20692366	    -24.15511467	    112.28089769	    -22.89426100	     28.65083605	     44.49132002	    101.31720189	    -32.08134592	     -7.01980689	      0.14779311
      2.56500000	      2.28500061	     -2.44819317	     88.97646252	     -0.02985100	      0.48261766	      0.39480679	     93.48219570	     -7.18244702	      0.01177116	   -133.46627567	     23.61011665	     11.19358929	     22.90467718	     92.48790297	     -9.46603577	      4.86434162	   -136.50327238	     21.74857347	     24.36614598	     32.14735866	    -58.52125712	     -0.85192289	     -0.72242959	     32.78706721	      4.42898367	     -1.45487998	    119.80206406	    -17.33229182	     18.65030243	     48.63125046	    102.40477304	      1.56508025	     -3.18460911	    -24.16719403	    112.23956105	    -22.97618048	     28.62962426	     44.42476915	    101.30161549	    -32.09014172	     -7.01443192	      0.14893860
      2.56750000	      2.29393128	     -2.48480868	     88.98457806	     -0.02973919	      0.48336376	      0.39463688	     93.38276041	     -7.10884416	     -0.01223460	   -133.36412803	     23.59956497	     11.16259688	     22.91265957	     92.39402386	     -9.45101865	      4.88005171	   -136.39397879	     21.75165399	     24.35659938	     32.16441248	    -58.43636332	     -0.84670710	     -0.74712748	     32.84487261	      4.43584109	     -1.43973039	    119.73749869	    -17.33173710	     18.65706885	     48.64227459	    102.40983062	      1.56536932	     -3.16021217	    -24.18877507	    112.20830610	    -23.07234267	     28.59523706	     44.36037378	    101.27828292	    -32.10216631	     -7.01739345	      0.15155382
      2.57000000	      2.30253630	     -2.51066697	     88.99296627	     -0.02960020	      0.48412189	      0.39448622	     93.28322356	     -7.04124251	     -0.04888095	   -133.26380828	     23.59144774	     11.12290206	     22.92081991	     92.29908968	     -9.44987108	      4.89159599	   -136.28675243	     21.75911666	     24.34872373	     32.18314671	    -58.36656272	     -0.84360204	     -0.76715290	     32.91539648	      4.43950392	     -1.41383145	    119.67213717	    -17.34684844	     18.65825448	     48.65618852	    102.41218146	      1.55677152	     -3.13557583	    -24.21641146	    112.17575025	    -23.18454473	     28.55583662	     44.30583159	    101.25198370	    -32.11166726	     -7.02481249	      0.15690088
      2.57250000	      2.39393146	     -2.39163614	     88.91775447	     -0.02919169	      0.48548394	      0.39429335	     92.94120714	     -6.87026704	     -0.27607011	   -133.09937356	     23.60228978	     10.69996756	     23.00350503	     92.00487036	     -9.59921786	      4.99184289	   -136.15958401	     21.86087545	     24.31999177	     32.37132963	    -58.54609366	     -0.86226514	     -0.73246614	     33.32365107	      4.43207178	     -1.12587174	    119.61161997	    -17.31310254	     18.55328757	     48.87757102	    102.40630630	      1.39122945	     -2.95509449	    -24.50740290	    112.16093689	    -23.45924268	     28.44041312	     44.48327942	    101.06710930	    -32.10368363	     -7.21899983	      0.24873248
      2.57500000	      2.39730757	     -2.42395843	     88.93147153	     -0.02913131	      0.48620755	      0.39414023	     92.86876631	     -6.82007399	     -0.28999772	   -133.00624779	     23.58118752	     10.68692542	     23.00576257	     91.93602539	     -9.57054325	      4.99372709	   -136.06621411	     21.84296390	     24.32404361	     32.38165895	    -58.45183950	     -0.85290044	     -0.72605807	     33.34163927	      4.43195514	     -1.12635354	    119.54718784	    -17.34531647	     18.56594672	     48.83850511	    102.40916548	      1.39756148	     -2.92884342	    -24.52143867	    112.10342685	    -23.54450986	     28.42525203	     44.40281800	    101.04258570	    -32.09851113	     -7.19583759	      0.25767032
      2.57750000	      2.40173181	     -2.45933904	     88.94605063	     -0.02903765	      0.48700485	      0.39399837	     92.78682693	     -6.77494052	     -0.30922698	   -132.90017645	     23.55910154	     10.66835847	     23.00738990	     91.86386615	     -9.54770324	      5.00485144	   -135.95461026	     21.82141033	     24.32528695	     32.39247287	    -58.36446300	     -0.84566536	     -0.72541059	     33.37333288	      4.42436715	     -1.11728720	    119.47411342	    -17.38240219	     18.57337757	     48.82362275	    102.41216613	      1.39872153	     -2.90519433	    -24.53938243	    112.04972895	    -23.63922212	     28.40165654	     44.33158903	    101.01325340	    -32.09430542	     -7.17233719	      0.26713341
      2.58000000	      2.40788601	     -2.49585096	     88.95978016	     -0.02895780	      0.48788506	      0.39385742	     92.69422573	     -6.72940774	     -0.33186232	   -132.78008571	     23.53573557	     10.64323176	     23.00836229	     91.78620452	     -9.51607191	      5.01623936	   -135.83360340	     21.79204210	     24.32554895	     32.40390170	    -58.28283528	     -0.83615116	     -0.71770737	     33.42433450	      4.41292539	     -1.09847912	    119.38815663	    -17.42261183	     18.57038763	     48.83069994	    102.41559613	      1.39259467	     -2.88148300	    -24.56235248	    111.98881094	    -23.73648750	     28.37429228	     44.27009123	    100.97819444	    -32.09110317	     -7.14705340	      0.27714081
      2.58250000	      2.41737436	     -2.53588280	     88.97617966	     -0.02889309	      0.48887206	      0.39371507	     92.58486606	     -6.68498487	     -0.35672177	   -132.64260734	     23.51039924	     10.60731985	     23.00896644	     91.69831144	     -9.47645052	      5.03122933	   -135.69796436	     21.75027025	     24.32337040	     32.41714181	    -58.20611332	     -0.82051141	     -0.70067085	     33.49989639	      4.39756234	     -1.06815884	    119.28672534	    -17.46481461	     18.54940751	     48.86769645	    102.41992597	      1.37547922	     -2.85464032	    -24.59400735	    111.92084035	    -23.83275295	     28.34094864	     44.22204981	    100.93298133	    -32.09056682	     -7.11830020	      0.28775505
      2.58500000	      2.53447455	     -2.47988700	     89.04698650	     -0.02876708	      0.49042327	      0.39348786	     92.26410778	     -6.68354518	     -0.58834218	   -132.45002131	     23.45163483	     10.27355886	     23.03751111	     91.51026774	     -9.42582412	      5.16381722	   -135.52529096	     21.52004280	     24.28503593	     32.55545090	    -58.33705290	     -0.71347301	     -0.61300075	     33.96081054	      4.32501973	     -0.84396804	    119.03112161	    -17.53647339	     18.20196471	     49.37662840	    102.46945641	      1.16866783	     -2.63054282	    -24.87986459	    111.84357647	    -23.97145487	     28.15326476	     44.44382007	    100.60232592	    -32.11081246	     -7.01924965	      0.36011639
      2.58750000	      2.54005059	     -2.52100038	     89.05902318	     -0.02878673	      0.49134605	      0.39336035	     92.17719941	     -6.63267212	     -0.58070598	   -132.31425066	     23.43622334	     10.25365016	     23.03713289	     91.43166614	     -9.37372040	      5.16734794	   -135.39721863	     21.50432094	     24.28368658	     32.56667050	    -58.23848076	     -0.69765777	     -0.57981998	     33.99894633	      4.34103144	     -0.84758209	    118.93413343	    -17.57289173	     18.19483886	     49.32949841	    102.48034010	      1.17248000	     -2.58437945	    -24.89543686	    111.74270678	    -24.06435392	     28.14611455	     44.36321316	    100.57386836	    -32.10937320	     -6.98663592	      0.36716768
      2.59000000	      2.55035599	     -2.58202001	     89.08063838	     -0.02876656	      0.49249897	      0.39326307	     92.05549912	     -6.58033178	     -0.59224503	   -132.13502396	     23.41872928	     10.22341449	     23.03682817	     91.32947269	     -9.31835915	      5.17298667	   -135.22356790	     21.47674913	     24.27696174	     32.58049246	    -58.13934540	     -0.67411203	     -0.55564048	     34.05713007	      4.34336140	     -0.84196624	    118.81164524	    -17.60670580	     18.16358832	     49.33866932	    102.49150288	      1.16458889	     -2.53846059	    -24.92260239	    111.65243496	    -24.15969871	     28.12560341	     44.29655419	    100.53192819	    -32.11541961	     -6.94962589	      0.37258046
      2.59250000	      2.66108782	     -2.52771914	     89.18715000	     -0.02868177	      0.49427784	      0.39308850	     91.68977585	     -6.60736720	     -0.81369745	   -131.89268262	     23.44090709	      9.89912367	     23.06906478	     91.08886578	     -9.23612255	      5.27862103	   -134.99364971	     21.35908822	     24.18111457	     32.73173860	    -58.26842475	     -0.55281728	     -0.49849969	     34.46984991	      4.30914474	     -0.74849298	    118.45789013	    -17.63988292	     17.65326229	     49.89202304	    102.58079879	      0.99050324	     -2.24245980	    -25.21042994	    111.57318455	    -24.30667381	     27.99836025	     44.48649427	    100.21695309	    -32.19854250	     -6.82504983	      0.39867161
      2.59500000	      2.67044734	     -2.58366372	     89.20421370	     -0.02870095	      0.49537541	      0.39301844	     91.58848553	     -6.54095401	     -0.80991674	   -131.72204276	     23.42245441	      9.88374895	     23.06757694	     90.99076678	     -9.17949362	      5.26483303	   -134.83611148	     21.34319011	     24.17965868	     32.74114748	    -58.15587952	     -0.53130294	     -0.47070512	     34.51321902	      4.32287887	     -0.75367929	    118.32913789	    -17.68093310	     17.64994792	     49.83905200	    102.59501940	      1.00259757	     -2.19550088	    -25.22356575	    111.45922244	    -24.41324919	     27.99873626	     44.39033598	    100.19111946	    -32.19716298	     -6.78990105	      0.40349732
      2.59750000	      2.68069877	     -2.65812550	     89.22750267	     -0.02868531	      0.49669188	      0.39300006	     91.45068469	     -6.48226650	     -0.82028258	   -131.50188142	     23.40514305	      9.85967652	     23.06642182	     90.87052033	     -9.13392815	      5.26060545	   -134.62322545	     21.32570915	     24.16848938	     32.75187900	    -58.04249665	     -0.50443422	     -0.46155434	     34.56745653	      4.32067288	     -0.75411397	    118.17037827	    -17.71971830	     17.63357329	     49.84706997	    102.60751317	      1.00747167	     -2.15725187	    -25.24551520	    111.35753242	    -24.53561999	     27.98872682	     44.30512929	    100.15692804	    -32.20061851	     -6.75376959	      0.40695163
      2.60000000	      2.73218348	     -2.71440373	     89.27329656	     -0.02862912	      0.49849591	      0.39315630	     91.22236211	     -6.44929133	     -0.92090063	   -131.17263190	     23.41930402	      9.74652416	     23.07720180	     90.69373731	     -9.09298160	      5.25718444	   -134.31534641	     21.31762241	     24.10620226	     32.80020038	    -58.05091384	     -0.44168393	     -0.48440272	     34.69227173	      4.27878837	     -0.73098436	    117.93107460	    -17.77358538	     17.45988215	     50.17050612	    102.63498317	      0.95914558	     -2.10363579	    -25.35401250	    111.32813477	    -24.76197649	     27.93818233	     44.33000221	    100.05023281	    -32.23035143	     -6.71043306	      0.41203906
